<?xml version="1.0" encoding="UTF-8"?>
<svg width="44px" height="44px" viewBox="0 0 44 44" version="1.1" xmlns="http://www.w3.org/2000/svg" xmlns:xlink="http://www.w3.org/1999/xlink">
    <!-- Generator: Sketch 49.3 (51167) - http://www.bohemiancoding.com/sketch -->
    <title>Icons/Navigation/Circled/Tick</title>
    <desc>Created with Sketch.</desc>
    <defs>
        <path d="M37.5565,6.4435 C46.1475,15.0355 46.1475,28.9645 37.5565,37.5565 C33.2605,41.8525 27.6295,43.9995 21.9995,43.9995 C16.3705,43.9995 10.7395,41.8525 6.4435,37.5565 C-2.1475,28.9645 -2.1475,15.0355 6.4435,6.4435 C10.7395,2.1475 16.3705,-0.0005 21.9995,-0.0005 C27.6295,-0.0005 33.2605,2.1475 37.5565,6.4435 Z M34.7275,34.7275 C38.1275,31.3285 39.9995,26.8075 39.9995,21.9995 C39.9995,17.1925 38.1275,12.6715 34.7275,9.2715 C31.3285,5.8725 26.8075,3.9995 21.9995,3.9995 C17.1925,3.9995 12.6715,5.8725 9.2725,9.2715 C5.8725,12.6715 3.9995,17.1925 3.9995,21.9995 C3.9995,26.8075 5.8725,31.3285 9.2725,34.7275 C12.6715,38.1275 17.1925,39.9995 21.9995,39.9995 C26.8075,39.9995 31.3285,38.1275 34.7275,34.7275 Z M29.5566,13.9893 C30.3376,13.2083 31.6036,13.2083 32.3846,13.9893 C33.1656,14.7703 33.1656,16.0363 32.3846,16.8173 L19.4546,29.7483 C19.3906,29.8403 19.3226,29.9283 19.2406,30.0103 C18.8496,30.4013 18.3376,30.5963 17.8266,30.5963 C17.8186,30.5963 17.8106,30.5943 17.8026,30.5943 C17.7936,30.5943 17.7856,30.5963 17.7786,30.5963 C17.2666,30.5963 16.7546,30.4013 16.3646,30.0103 C16.2836,29.9293 16.2146,29.8403 16.1506,29.7493 L11.6156,25.2133 C10.8336,24.4313 10.8336,23.1653 11.6156,22.3853 C12.3966,21.6033 13.6616,21.6033 14.4436,22.3853 L17.8026,25.7443 L29.5566,13.9893 Z" id="path-1"></path>
    </defs>
    <g id="Icons/Navigation/Circled/Tick" stroke="none" stroke-width="1" fill="none" fill-rule="evenodd">
        <mask id="mask-2" fill="white">
            <use xlink:href="#path-1"></use>
        </mask>
        <use id="Combined-Shape" fill="#004687" xlink:href="#path-1"></use>
        <g id="Colours/Secondary/Light-Green" mask="url(#mask-2)" fill="#B2D235">
            <g transform="translate(-8.000000, -8.000000)" id="Rectangle">
                <rect x="0" y="0" width="60" height="60"></rect>
            </g>
        </g>
    </g>
</svg>